<?xml version="1.0" encoding="UTF-8"?>
<svg id="Layer_2" data-name="Layer 2" xmlns="http://www.w3.org/2000/svg" viewBox="0 0 32.66 32.61">
  <defs>
    <style>
      .cls-1 {
        fill: #fff;
        stroke-width: 0px;
      }
    </style>
  </defs>
  <g id="Layer_45" data-name="Layer 45">
    <path class="cls-1" d="M16.33,0C7.32,0,0,7.32,0,16.33c0,8.18,6.03,14.95,13.89,16.13l.85.13v-12.87h-3.86v-2.61h3.86v-3.47c0-2.14.51-3.54,1.36-4.43.85-.88,2.1-1.33,3.85-1.33,1.4,0,1.94.08,2.45.15v2.14h-1.82c-1.03,0-1.88.58-2.32,1.34-.44.77-.58,1.68-.58,2.61v2.98h4.55l-.4,2.61h-4.14v12.89l.84-.11c7.97-1.08,14.12-7.91,14.12-16.17C32.66,7.32,25.34,0,16.33,0ZM16.33,1.48c8.21,0,14.85,6.64,14.85,14.85,0,7.22-5.17,13.16-11.99,14.5v-9.63h3.93l.86-5.58h-4.79v-1.5c0-.77.14-1.46.38-1.87.24-.41.47-.59,1.03-.59h3.3v-4.97l-.64-.09c-.45-.06-1.46-.2-3.3-.2-2.01,0-3.73.55-4.92,1.78-1.19,1.24-1.78,3.08-1.78,5.46v1.99h-3.86v5.58h3.86v9.58c-6.71-1.42-11.78-7.31-11.78-14.45C1.48,8.12,8.12,1.48,16.33,1.48Z"/>
  </g>
</svg>