<?xml version="1.0" encoding="UTF-8"?>
<svg id="Layer_2" data-name="Layer 2" xmlns="http://www.w3.org/2000/svg" viewBox="0 0 32.51 32.51">
  <defs>
    <style>
      .cls-1 {
        fill: #fff;
        stroke-width: 0px;
      }
    </style>
  </defs>
  <g id="Layer_45" data-name="Layer 45">
    <path class="cls-1" d="M9.6,0C4.31,0,0,4.31,0,9.6v13.3c0,5.3,4.31,9.6,9.6,9.6h13.3c5.3,0,9.6-4.31,9.6-9.6v-13.3c0-5.3-4.31-9.6-9.6-9.6h-13.3ZM9.6,1.48h13.3c4.5,0,8.13,3.63,8.13,8.13v13.3c0,4.5-3.63,8.13-8.13,8.13h-13.3c-4.5,0-8.13-3.63-8.13-8.13v-13.3C1.48,5.11,5.11,1.48,9.6,1.48ZM25.12,5.91c-.82,0-1.48.66-1.48,1.48s.66,1.48,1.48,1.48,1.48-.66,1.48-1.48-.66-1.48-1.48-1.48ZM16.25,8.13c-4.48,0-8.13,3.65-8.13,8.13s3.65,8.13,8.13,8.13,8.13-3.65,8.13-8.13-3.65-8.13-8.13-8.13ZM16.25,9.6c3.68,0,6.65,2.97,6.65,6.65s-2.97,6.65-6.65,6.65-6.65-2.97-6.65-6.65,2.97-6.65,6.65-6.65Z"/>
  </g>
</svg>