<?xml version="1.0" encoding="UTF-8"?>
<svg id="Layer_2" data-name="Layer 2" xmlns="http://www.w3.org/2000/svg" viewBox="0 0 31.15 31.15">
  <defs>
    <style>
      .cls-1 {
        fill: #fff;
        stroke-width: 0px;
      }
    </style>
  </defs>
  <g id="Layer_45" data-name="Layer 45">
    <path class="cls-1" d="M3.71,0C1.67,0,0,1.67,0,3.71v23.74c0,2.04,1.67,3.71,3.71,3.71h23.74c2.04,0,3.71-1.67,3.71-3.71V3.71c0-2.04-1.67-3.71-3.71-3.71H3.71ZM3.71,1.48h23.74c1.24,0,2.23.99,2.23,2.23v23.74c0,1.24-.99,2.23-2.23,2.23H3.71c-1.24,0-2.23-.99-2.23-2.23V3.71c0-1.24.99-2.23,2.23-2.23ZM16.35,4.45c-.41,0-.74.33-.74.74,0,0,0,3.62-.02,7.24,0,1.81,0,3.63-.01,4.99,0,1.37,0,2.23,0,2.3,0,1.35-1.22,2.45-2.62,2.45s-2.49-1.1-2.49-2.49,1.1-2.49,2.49-2.49c.05,0,.14.02.3.03.41.05.78-.24.82-.65,0-.03,0-.06,0-.09v-3.12c0-.39-.3-.72-.7-.74-.12,0-.26-.02-.44-.02-3.89,0-7.07,3.17-7.07,7.07,0,3.89,3.17,7.07,7.07,7.07,3.89,0,7.07-3.17,7.07-7.07v-6.71c1.08.86,2.42,1.41,3.91,1.41.2,0,.4-.01.58-.03.38-.04.67-.36.67-.74v-3.46c0-.39-.3-.71-.69-.74-2.33-.17-4.19-1.98-4.43-4.3-.04-.38-.36-.66-.74-.66h-2.98ZM17.09,5.93h1.69c.54,2.45,2.45,4.31,4.92,4.78v2.13c-1.59-.08-2.98-.87-3.8-2.12-.22-.34-.68-.44-1.03-.21-.21.14-.33.37-.33.62v8.56c0,3.09-2.49,5.58-5.58,5.58s-5.58-2.49-5.58-5.58,2.31-5.32,5.23-5.51v1.61c-2.01.19-3.62,1.84-3.62,3.9,0,2.18,1.79,3.97,3.97,3.97s4.1-1.71,4.1-3.93c0,.04,0-.93,0-2.3,0-1.37,0-3.18.01-4.99,0-3.25.01-5.87.01-6.5Z"/>
  </g>
</svg>