<?xml version="1.0" encoding="UTF-8"?>
<svg id="Layer_2" data-name="Layer 2" xmlns="http://www.w3.org/2000/svg" viewBox="0 0 43.79 32.51">
  <defs>
    <style>
      .cls-1 {
        fill: #fff;
        stroke-width: 0px;
      }
    </style>
  </defs>
  <g id="Layer_45" data-name="Layer 45">
    <path class="cls-1" d="M21.74,0C15.04,0,8.74.51,5.39,1.22,3.15,1.73,1.22,3.25.81,5.59c-.4,2.44-.81,6.1-.81,10.67s.4,8.13.91,10.67c.41,2.23,2.34,3.86,4.57,4.37,3.56.71,9.65,1.22,16.36,1.22s12.8-.51,16.36-1.22c2.24-.51,4.17-2.03,4.57-4.37.41-2.54.92-6.2,1.02-10.77,0-4.57-.51-8.23-1.02-10.77-.4-2.23-2.33-3.86-4.57-4.37-3.56-.51-9.75-1.02-16.45-1.02ZM21.74,2.03c7.31,0,13.2.61,16.05,1.12,1.52.41,2.74,1.42,2.94,2.75.61,3.25,1.02,6.71,1.02,10.26-.1,4.37-.61,7.92-1.02,10.46-.3,1.93-2.33,2.54-2.94,2.75-3.66.71-9.76,1.21-15.85,1.21s-12.29-.4-15.85-1.21c-1.52-.41-2.74-1.42-2.94-2.75-.81-2.85-1.12-6.6-1.12-10.36,0-4.68.41-8.13.81-10.26.31-1.93,2.44-2.54,2.94-2.75,3.35-.71,9.55-1.22,15.95-1.22ZM16.26,8.13v16.26l14.22-8.13-14.22-8.13ZM18.29,11.58l8.13,4.67-8.13,4.67v-9.34Z"/>
  </g>
</svg>