<?xml version="1.0" encoding="UTF-8"?>
<svg id="Layer_2" data-name="Layer 2" xmlns="http://www.w3.org/2000/svg" viewBox="0 0 164.67 113.62">
  <defs>
    <style>
      .cls-1 {
        fill: #a34699;
      }

      .cls-1, .cls-2 {
        stroke-width: 0px;
      }

      .cls-2, .cls-3 {
        fill: #fff;
      }

      .cls-3 {
        stroke: #a34699;
        stroke-miterlimit: 10;
        stroke-width: 2px;
      }
    </style>
  </defs>
  <g id="landing">
    <g>
      <path class="cls-3" d="M105.64,7.62h-52.14C24.5,7.62,1,31.13,1,60.12h0c0,28.99,23.5,52.5,52.5,52.5h52.14c28.99,0,52.5-23.5,52.5-52.5h0c0-28.99-23.5-52.5-52.5-52.5Z"/>
      <path class="cls-1" d="M112.17,0h-52.14C31.04,0,7.53,23.5,7.53,52.5h0c0,28.99,23.5,52.5,52.5,52.5h52.14c28.99,0,52.5-23.5,52.5-52.5h0c0-28.99-23.5-52.5-52.5-52.5Z"/>
      <g>
        <path class="cls-2" d="M19.91,61.25l-.36-23.25,6.25-.1c5.69-.09,9.81,2.29,9.9,7.67.09,5.59-4.24,7.96-9.65,8.04l-4.96.08.12,7.54-1.29.02ZM20.85,39.16l.21,13.3,4.96-.08c4.61-.07,8.46-1.95,8.38-6.8-.07-4.61-3.7-6.58-8.59-6.5l-4.96.08Z"/>
        <path class="cls-2" d="M37.05,60.98l-.17-10.61c-.06-3.81,2.13-6.42,5.63-6.48,1.01-.02,1.96.18,2.84.62l.02,1.29c-.85-.51-1.79-.74-2.77-.72-2.79.04-4.54,2.17-4.49,5.34l.17,10.54-1.22.02Z"/>
        <path class="cls-2" d="M43.65,52.42c-.08-4.82,3.77-8.79,8.63-8.87,4.96-.08,8.76,3.81,8.83,8.59.08,4.82-3.67,8.82-8.56,8.9-4.92.08-8.83-3.81-8.9-8.63ZM59.89,52.17c-.06-4.12-3.47-7.49-7.59-7.42-4.19.07-7.45,3.54-7.39,7.66.07,4.15,3.44,7.52,7.63,7.46,4.12-.06,7.42-3.54,7.35-7.69Z"/>
        <path class="cls-2" d="M62.42,64.7l1.07-.61c1.36,2.32,3.89,3.29,6.37,3.25,4.57-.07,6.72-3.7,6.61-8.1l-.08-3.07c-1.01,2.7-3.21,4.56-6.49,4.61-4.71.07-7.42-3.17-7.49-7.95l-.14-9.08,1.26-.02.14,8.83c.07,4.22,2.24,7.09,6.29,7.03,4.15-.07,6.44-3.52,6.38-7.68l-.13-8.38,1.26-.02.25,15.71c.08,5.27-2.44,9.22-7.82,9.31-2.9.05-5.88-1.13-7.46-3.83Z"/>
        <path class="cls-2" d="M79.41,51.9c-.08-4.85,3.18-8.82,8-8.89,4.75-.07,8.01,3.26,8.09,8.08v.91s-14.82.23-14.82.23c.2,4.01,3.26,7.14,7.38,7.08,2.44-.04,4.7-1.05,6.02-3.45l.99.58c-1.53,2.71-4.09,4.01-6.99,4.06-4.85.08-8.58-3.71-8.66-8.59ZM94.27,50.96c-.06-4.12-2.94-6.83-6.85-6.77-3.95.06-6.52,3.14-6.74,6.99l13.58-.21Z"/>
        <path class="cls-2" d="M95.85,51.64c-.08-4.85,3.77-8.83,8.28-8.9,2.9-.05,5.54,1.21,7.12,3.87l-1.04.64c-1.4-2.35-3.58-3.37-6.06-3.33-3.84.06-7.1,3.57-7.04,7.69.06,4.12,3.44,7.49,7.28,7.43,2.48-.04,4.63-1.09,5.95-3.48l1.06.61c-1.49,2.71-4.09,4.01-6.99,4.06-4.5.11-8.48-3.74-8.55-8.6Z"/>
        <path class="cls-2" d="M113.64,54.64l-.17-10.54-3.77.06-.02-1.15,3.77-.06-.07-4.5,1.22-.02.07,4.5,7.16-.11.02,1.15-7.16.11.17,10.51c.04,2.72,1.6,4.31,3.98,4.27,1.29-.02,2.4-.53,3.23-1.31l.02,1.29c-.86.71-2.04,1.18-3.3,1.2-3.11.05-5.1-2.05-5.15-5.4Z"/>
        <path class="cls-2" d="M122.52,51.18c-.08-4.82,3.77-8.79,8.63-8.87,4.96-.08,8.76,3.81,8.83,8.59.08,4.82-3.67,8.82-8.56,8.9-4.92.08-8.83-3.81-8.9-8.63ZM138.76,50.93c-.06-4.12-3.47-7.49-7.59-7.42-4.19.07-7.45,3.54-7.39,7.66.07,4.15,3.44,7.52,7.63,7.46,4.12-.06,7.42-3.54,7.35-7.69Z"/>
        <path class="cls-2" d="M140.69,56l1.04-.61c1.12,2.11,2.94,2.96,5.11,2.92,2.51-.04,4.66-1.37,4.62-3.63-.08-5.13-10.26-1.45-10.35-7.76-.04-2.72,2.48-4.61,5.37-4.66,2.44-.04,4.52.94,5.7,2.98l-1.04.61c-1.04-1.83-2.73-2.44-4.61-2.41-2.16.03-4.2,1.39-4.17,3.45.08,4.99,10.25,1.38,10.35,7.76.05,2.93-2.68,4.79-5.83,4.84-2.62.04-4.94-1.11-6.2-3.5Z"/>
      </g>
    </g>
  </g>
</svg>