<?xml version="1.0" encoding="UTF-8"?>
<svg id="Layer_2" data-name="Layer 2" xmlns="http://www.w3.org/2000/svg" viewBox="0 0 164.67 113.62">
  <defs>
    <style>
      .cls-1 {
        stroke: #dde21e;
        stroke-miterlimit: 10;
        stroke-width: 2px;
      }

      .cls-1, .cls-2 {
        fill: #fff;
      }

      .cls-2, .cls-3 {
        stroke-width: 0px;
      }

      .cls-3 {
        fill: #dde21e;
      }
    </style>
  </defs>
  <g id="landing">
    <g>
      <g>
        <path class="cls-1" d="M105.64,7.62h-52.14C24.5,7.62,1,31.13,1,60.12h0c0,28.99,23.5,52.5,52.5,52.5h52.14c28.99,0,52.5-23.5,52.5-52.5h0c0-28.99-23.5-52.5-52.5-52.5Z"/>
        <path class="cls-3" d="M112.17,0h-52.14C31.04,0,7.53,23.5,7.53,52.5h0c0,28.99,23.5,52.5,52.5,52.5h52.14c28.99,0,52.5-23.5,52.5-52.5h0c0-28.99-23.5-52.5-52.5-52.5Z"/>
      </g>
      <g>
        <path class="cls-2" d="M41.22,53.39c0-6.28,4.95-11.63,11.22-11.63,3.51,0,6.96,1.64,8.84,4.81l-1.06.65c-1.64-2.83-4.88-4.26-7.81-4.26-5.46,0-9.89,4.74-9.89,10.44s4.37,10.51,9.93,10.51c3.45,0,6.48-1.77,7.68-3.38v-6.14h1.23v6.62c-1.43,1.94-4.61,4.13-8.9,4.13-6.24,0-11.22-5.32-11.22-11.74Z"/>
        <path class="cls-2" d="M62.06,56.53c0-4.67,3.65-8.53,8.53-8.53s8.53,3.75,8.53,8.53v8.26h-1.16v-4.54c-1.26,2.87-4.06,4.84-7.47,4.84-4.74,0-8.43-3.86-8.43-8.56ZM77.93,56.53c0-4.03-3.28-7.37-7.34-7.37s-7.3,3.34-7.3,7.37,3.24,7.4,7.3,7.4,7.34-3.34,7.34-7.4Z"/>
        <path class="cls-2" d="M81.73,40.8v23.99h-1.19v-23.99h1.19Z"/>
        <path class="cls-2" d="M83.27,56.56c0-4.74,3.24-8.56,7.95-8.56s7.78,3.31,7.78,8.02v.89h-14.5c.14,3.92,3.07,7.03,7.1,7.03,2.39,0,4.61-.96,5.94-3.28l.96.58c-1.54,2.63-4.06,3.86-6.89,3.86-4.74,0-8.32-3.75-8.32-8.53ZM97.8,55.88c0-4.03-2.76-6.72-6.58-6.72s-6.41,2.97-6.69,6.72h13.27Z"/>
        <path class="cls-2" d="M100.03,64.78v-10.37c0-3.72,2.18-6.24,5.6-6.24.99,0,1.91.2,2.76.65v1.26c-.82-.51-1.74-.75-2.7-.75-2.73,0-4.47,2.05-4.47,5.15v10.3h-1.19Z"/>
        <path class="cls-2" d="M109.16,45.17l3.82-4.5h1.33l-3.82,4.5h-1.33ZM110.49,48.34v16.45h-1.19v-16.45h1.19Z"/>
        <path class="cls-2" d="M111.32,56.53c0-4.67,3.65-8.53,8.53-8.53s8.53,3.75,8.53,8.53v8.26h-1.16v-4.54c-1.26,2.87-4.06,4.84-7.47,4.84-4.74,0-8.43-3.86-8.43-8.56ZM127.19,56.53c0-4.03-3.28-7.37-7.34-7.37s-7.3,3.34-7.3,7.37,3.24,7.4,7.3,7.4,7.34-3.34,7.34-7.4Z"/>
      </g>
    </g>
  </g>
</svg>