<?xml version="1.0" encoding="UTF-8"?>
<svg id="Layer_2" data-name="Layer 2" xmlns="http://www.w3.org/2000/svg" viewBox="0 0 164.67 113.62">
  <defs>
    <style>
      .cls-1 {
        stroke: #f57f40;
        stroke-miterlimit: 10;
        stroke-width: 2px;
      }

      .cls-1, .cls-2 {
        fill: #fff;
      }

      .cls-3 {
        fill: #f57f40;
      }

      .cls-3, .cls-2 {
        stroke-width: 0px;
      }
    </style>
  </defs>
  <g id="landing">
    <g>
      <path class="cls-1" d="M105.64,7.62h-52.14C24.5,7.62,1,31.13,1,60.12h0c0,28.99,23.5,52.5,52.5,52.5h52.14c28.99,0,52.5-23.5,52.5-52.5h0c0-28.99-23.5-52.5-52.5-52.5Z"/>
      <path class="cls-3" d="M112.17,0h-52.14C31.04,0,7.53,23.5,7.53,52.5h0c0,28.99,23.5,52.5,52.5,52.5h52.14c28.99,0,52.5-23.5,52.5-52.5h0c0-28.99-23.5-52.5-52.5-52.5Z"/>
      <g>
        <path class="cls-2" d="M13.58,51.9c0-5.24,4.17-9.43,9.08-9.43,3.03,0,5.66,1.52,7.14,3.92l-.83.52c-1.32-2.18-3.81-3.48-6.34-3.48-4.33,0-8,3.75-8,8.47s3.64,8.5,8,8.5c2.54,0,5.02-1.27,6.34-3.45l.83.52c-1.49,2.43-4.11,3.92-7.14,3.92-4.91,0-9.08-4.22-9.08-9.49Z"/>
        <path class="cls-2" d="M29.33,54.44c0-3.81,3.09-6.9,6.92-6.9s6.87,3.12,6.87,6.9-3.01,6.92-6.87,6.92-6.92-3.12-6.92-6.92ZM42.16,54.44c0-3.25-2.65-5.96-5.9-5.96s-5.93,2.7-5.93,5.96,2.62,5.99,5.93,5.99,5.9-2.7,5.9-5.99Z"/>
        <path class="cls-2" d="M44.4,54.27v6.84h-.97v-6.87c0-3.81,2.34-6.7,6.15-6.7s6.29,2.87,6.29,6.68v6.9h-.97v-6.81c0-3.12-1.93-5.82-5.32-5.82s-5.19,2.7-5.19,5.79Z"/>
        <path class="cls-2" d="M54.72,47.82h1.02l4.52,11.97c.17.44.5.66.86.66.39,0,.69-.22.86-.66l4.52-11.97h1.02l-4.63,12.28c-.33.86-.99,1.3-1.77,1.3s-1.43-.44-1.77-1.3l-4.63-12.28Z"/>
        <path class="cls-2" d="M65.82,54.44c0-3.81,3.09-6.9,6.92-6.9s6.87,3.12,6.87,6.9-3.01,6.92-6.87,6.92-6.92-3.12-6.92-6.92ZM78.64,54.44c0-3.25-2.65-5.96-5.9-5.96s-5.93,2.7-5.93,5.96,2.62,5.99,5.93,5.99,5.9-2.7,5.9-5.99Z"/>
        <path class="cls-2" d="M80.02,54.47c0-3.83,3.09-6.92,6.65-6.92,2.29,0,4.36,1.02,5.57,3.14l-.83.5c-1.08-1.88-2.79-2.7-4.74-2.7-3.03,0-5.66,2.73-5.66,5.99s2.62,5.96,5.66,5.96c1.96,0,3.67-.8,4.74-2.68l.83.5c-1.21,2.12-3.28,3.12-5.57,3.12-3.56.03-6.65-3.06-6.65-6.9Z"/>
        <path class="cls-2" d="M91.82,54.44c0-3.78,2.95-6.9,6.9-6.9s6.9,3.03,6.9,6.9v6.68h-.94v-3.67c-1.02,2.32-3.28,3.92-6.04,3.92-3.83,0-6.81-3.12-6.81-6.92ZM104.65,54.44c0-3.25-2.65-5.96-5.93-5.96s-5.9,2.7-5.9,5.96,2.62,5.99,5.9,5.99,5.93-2.7,5.93-5.99Z"/>
        <path class="cls-2" d="M106.73,57.06v-8.33h-2.98v-.91h2.98v-3.56h.97v3.56h5.66v.91h-5.66v8.3c0,2.15,1.21,3.42,3.09,3.42,1.02,0,1.9-.39,2.57-.99v1.02c-.69.55-1.63.91-2.62.91-2.46,0-4-1.68-4-4.33Z"/>
        <path class="cls-2" d="M113.52,54.44c0-3.81,3.09-6.9,6.92-6.9s6.87,3.12,6.87,6.9-3.01,6.92-6.87,6.92-6.92-3.12-6.92-6.92ZM126.34,54.44c0-3.25-2.65-5.96-5.9-5.96s-5.93,2.7-5.93,5.96,2.62,5.99,5.93,5.99,5.9-2.7,5.9-5.99Z"/>
        <path class="cls-2" d="M128.19,61.11v-8.39c0-3.01,1.77-5.05,4.52-5.05.8,0,1.54.17,2.23.52v1.02c-.66-.41-1.41-.61-2.18-.61-2.21,0-3.61,1.66-3.61,4.17v8.33h-.97Z"/>
        <path class="cls-2" d="M135,43.32c0-.52.36-.88.83-.88.5,0,.83.36.83.88,0,.5-.33.86-.83.86-.47,0-.83-.36-.83-.86ZM136.3,47.82v13.3h-.97v-13.3h.97Z"/>
        <path class="cls-2" d="M137.18,54.44c0-3.78,2.95-6.9,6.9-6.9s6.9,3.03,6.9,6.9v6.68h-.94v-3.67c-1.02,2.32-3.28,3.92-6.04,3.92-3.83,0-6.81-3.12-6.81-6.92ZM150.01,54.44c0-3.25-2.65-5.96-5.93-5.96s-5.9,2.7-5.9,5.96,2.62,5.99,5.9,5.99,5.93-2.7,5.93-5.99Z"/>
        <path class="cls-2" d="M151.12,58.47l.83-.47c.86,1.68,2.29,2.37,4,2.37,1.99,0,3.7-1.02,3.7-2.81,0-4.06-8.08-1.27-8.08-6.26,0-2.15,2.01-3.61,4.3-3.61,1.93,0,3.56.8,4.47,2.43l-.83.47c-.8-1.46-2.12-1.96-3.61-1.96-1.71,0-3.34,1.05-3.34,2.68,0,3.94,8.08,1.21,8.08,6.26,0,2.32-2.18,3.75-4.66,3.75-2.07,0-3.89-.94-4.86-2.84Z"/>
      </g>
    </g>
  </g>
</svg>