<?xml version="1.0" encoding="UTF-8"?>
<svg id="Layer_2" data-name="Layer 2" xmlns="http://www.w3.org/2000/svg" viewBox="0 0 164.67 113.62">
  <defs>
    <style>
      .cls-1 {
        fill: #83c7ec;
      }

      .cls-1, .cls-2 {
        stroke-width: 0px;
      }

      .cls-2, .cls-3 {
        fill: #fff;
      }

      .cls-3 {
        stroke: #83c7ec;
        stroke-miterlimit: 10;
        stroke-width: 2px;
      }
    </style>
  </defs>
  <g id="landing">
    <g>
      <path class="cls-3" d="M105.64,7.62h-52.14C24.5,7.62,1,31.13,1,60.12h0c0,28.99,23.5,52.5,52.5,52.5h52.14c28.99,0,52.5-23.5,52.5-52.5h0c0-28.99-23.5-52.5-52.5-52.5Z"/>
      <path class="cls-1" d="M112.17,0h-52.14C31.04,0,7.53,23.5,7.53,52.5h0c0,28.99,23.5,52.5,52.5,52.5h52.14c28.99,0,52.5-23.5,52.5-52.5h0c0-28.99-23.5-52.5-52.5-52.5Z"/>
      <g>
        <path class="cls-2" d="M28.83,62.76v-20.3c0-1.77,1.09-2.73,2.49-2.73,1.09,0,1.84.55,2.35,1.67l9.14,19.41c.34.78.85,1.19,1.47,1.19.68,0,1.16-.55,1.16-1.6v-20.37h1.19v20.3c0,1.77-1.13,2.73-2.35,2.73-1.02,0-1.91-.51-2.46-1.67l-9.14-19.48c-.34-.75-.75-1.16-1.36-1.16-.79,0-1.33.58-1.33,1.67v20.33h-1.16Z"/>
        <path class="cls-2" d="M48.45,54.5c0-4.71,3.82-8.53,8.56-8.53s8.5,3.85,8.5,8.53-3.72,8.56-8.5,8.56-8.56-3.86-8.56-8.56ZM64.31,54.5c0-4.03-3.28-7.37-7.3-7.37s-7.33,3.34-7.33,7.37,3.24,7.4,7.33,7.4,7.3-3.34,7.3-7.4Z"/>
        <path class="cls-2" d="M65.78,59.48l1.02-.58c1.06,2.08,2.83,2.93,4.95,2.93,2.46,0,4.57-1.26,4.57-3.48,0-5.02-10-1.57-10-7.75,0-2.66,2.49-4.47,5.32-4.47,2.39,0,4.4.99,5.53,3l-1.02.58c-.99-1.81-2.63-2.42-4.47-2.42-2.12,0-4.13,1.3-4.13,3.31,0,4.88,10,1.5,10,7.75,0,2.87-2.7,4.64-5.77,4.64-2.56,0-4.81-1.16-6-3.51Z"/>
        <path class="cls-2" d="M77.82,54.5c0-4.71,3.82-8.53,8.56-8.53s8.5,3.85,8.5,8.53-3.72,8.56-8.5,8.56-8.56-3.86-8.56-8.56ZM93.69,54.5c0-4.03-3.28-7.37-7.3-7.37s-7.33,3.34-7.33,7.37,3.24,7.4,7.33,7.4,7.3-3.34,7.3-7.4Z"/>
        <path class="cls-2" d="M97.06,57.74v-10.3h-3.69v-1.13h3.69v-4.4h1.19v4.4h7v1.13h-7v10.27c0,2.66,1.5,4.23,3.82,4.23,1.26,0,2.35-.48,3.17-1.23v1.26c-.85.68-2.01,1.13-3.24,1.13-3.04,0-4.95-2.08-4.95-5.36Z"/>
        <path class="cls-2" d="M107.36,62.76v-10.37c0-3.72,2.18-6.24,5.59-6.24.99,0,1.91.2,2.76.65v1.26c-.82-.51-1.74-.75-2.7-.75-2.73,0-4.47,2.05-4.47,5.15v10.3h-1.19Z"/>
        <path class="cls-2" d="M113.61,54.5c0-4.71,3.82-8.53,8.56-8.53s8.5,3.85,8.5,8.53-3.72,8.56-8.5,8.56-8.56-3.86-8.56-8.56ZM129.47,54.5c0-4.03-3.28-7.37-7.3-7.37s-7.33,3.34-7.33,7.37,3.24,7.4,7.33,7.4,7.3-3.34,7.3-7.4Z"/>
        <path class="cls-2" d="M130.94,59.48l1.02-.58c1.06,2.08,2.83,2.93,4.95,2.93,2.46,0,4.57-1.26,4.57-3.48,0-5.02-10-1.57-10-7.75,0-2.66,2.49-4.47,5.32-4.47,2.39,0,4.4.99,5.53,3l-1.02.58c-.99-1.81-2.63-2.42-4.47-2.42-2.12,0-4.13,1.3-4.13,3.31,0,4.88,10,1.5,10,7.75,0,2.87-2.7,4.64-5.77,4.64-2.56,0-4.81-1.16-6-3.51Z"/>
      </g>
    </g>
  </g>
</svg>