<?xml version="1.0" encoding="UTF-8"?>
<svg id="Layer_2" data-name="Layer 2" xmlns="http://www.w3.org/2000/svg" viewBox="0 0 107.86 247.01">
  <defs>
    <style>
      .cls-1 {
        fill: #000;
        stroke-width: 0px;
      }
    </style>
  </defs>
  <g id="_12_lamding_3" data-name="12 lamding 3">
    <path class="cls-1" d="M55.67,1.05l9.83,12.42,14.85-5.52c2.5-.93,4.72,1.89,3.25,4.11l-8.77,13.19,9.83,12.42c1.65,2.09-.33,5.08-2.9,4.36l-15.25-4.26-8.77,13.19c-1.48,2.22-4.93,1.25-5.04-1.41l-.66-15.82-15.25-4.26c-2.57-.72-2.72-4.3-.22-5.23l14.85-5.52-.66-15.82c-.11-2.66,3.25-3.91,4.91-1.82Z"/>
    <path class="cls-1" d="M103.12,167.49l-23.33,28.44,19.84,30.98c1.44,2.25-.84,5.02-3.32,4.05l-34.26-13.4-23.33,28.44c-1.69,2.06-5.03.76-4.88-1.91l2.16-36.72L1.75,193.96c-2.48-.97-2.27-4.55.31-5.23l35.59-9.29,2.16-36.72c.16-2.66,3.63-3.57,5.07-1.32l19.84,30.98,35.59-9.29c2.58-.67,4.51,2.35,2.82,4.41h0Z"/>
    <path class="cls-1" d="M107.3,79.38l-16.05,20.81,14.83,21.7c1.55,2.17-.58,5.05-3.11,4.2l-24.75-8.83-16.05,20.81c-1.59,2.14-4.98,1.01-4.96-1.66l.75-26.27-24.75-8.83c-2.52-.84-2.49-4.43.05-5.23l25.22-7.4.75-26.27c.02-2.66,3.44-3.74,4.99-1.57l14.83,21.7,25.22-7.4c2.54-.8,4.62,2.11,3.04,4.26h0Z"/>
  </g>
</svg>