<?xml version="1.0" encoding="UTF-8"?>
<svg id="Layer_2" data-name="Layer 2" xmlns="http://www.w3.org/2000/svg" viewBox="0 0 52.71 86.58">
  <defs>
    <style>
      .cls-1 {
        fill: #000;
        stroke-width: 0px;
      }
    </style>
  </defs>
  <g id="_12_lamding_3" data-name="12 lamding 3">
    <path class="cls-1" d="M24.49.06C11.52.95,1,11.43.06,24.39c-.35,4.81.96,9.21,2.52,13.37.77,2.05,1.29,3.91,1.95,5.59l16.46,40.67c1.92,3.57,8.83,3.27,10.73,0l16.37-40.94c.68-1.74,1.45-3.54,2.07-5.37,1.21-3.61,2.56-7.28,2.56-11.34C52.71,11.19,39.89-.99,24.49.06ZM27.71,38.61c-8.46.84-15.51-6.21-14.67-14.67.62-6.26,5.68-11.32,11.94-11.94,8.46-.84,15.51,6.21,14.67,14.67-.62,6.26-5.68,11.32-11.94,11.94Z"/>
  </g>
</svg>