<?xml version="1.0" encoding="UTF-8"?>
<svg id="Layer_2" data-name="Layer 2" xmlns="http://www.w3.org/2000/svg" viewBox="0 0 292.37 156.55">
  <defs>
    <style>
      .cls-1 {
        fill: #000;
      }

      .cls-1, .cls-2 {
        stroke-width: 0px;
      }

      .cls-2, .cls-3 {
        fill: #fff;
      }

      .cls-3 {
        stroke: #fff;
        stroke-miterlimit: 10;
      }
    </style>
  </defs>
  <g id="Layer_1-2" data-name="Layer 1">
    <g>
      <rect class="cls-1" x="0" y="0" width="292.37" height="156.55" rx="78.26" ry="78.26"/>
      <path class="cls-3" d="M10.73,78.14C10.73,40.67,40.37,9.77,78.64,9.77s68.16,31.16,68.16,68.38-29.63,68.63-68.16,68.63S10.73,115.86,10.73,78.14ZM110.83,78.39c0-18.34-13.67-33.55-32.19-33.55s-31.93,15.19-31.93,33.55,13.45,33.55,31.93,33.55,32.19-15.19,32.19-33.55Z"/>
      <circle class="cls-3" cx="78.76" cy="78.27" r="33.61"/>
      <g>
        <path class="cls-2" d="M159.77,52.68c0-12.8,9.76-22.56,22.62-22.56s22.69,9.76,22.69,22.56-9.82,22.56-22.69,22.56-22.62-9.7-22.62-22.56ZM195.32,52.68c0-7.69-5.62-13.64-12.93-13.64s-12.93,5.95-12.93,13.64,5.69,13.64,12.93,13.64,12.93-5.95,12.93-13.64Z"/>
        <path class="cls-2" d="M212.64,59.53v14.86h-9.18v-15.96c0-9.31,5.49-16.93,16.67-16.93s16.8,7.56,16.8,16.93v15.96h-9.18v-14.86c0-4.91-2.39-9.11-7.63-9.11s-7.5,4.2-7.5,9.11Z"/>
        <path class="cls-2" d="M159.77,103.86c0-12.8,9.76-22.56,22.62-22.56s22.69,9.76,22.69,22.56-9.82,22.56-22.69,22.56-22.62-9.7-22.62-22.56ZM195.32,103.86c0-7.69-5.62-13.64-12.93-13.64s-12.93,5.95-12.93,13.64,5.69,13.64,12.93,13.64,12.93-5.95,12.93-13.64Z"/>
        <path class="cls-2" d="M208.65,125.58v-24.23h-5.69v-7.76h5.69v-1.68c0-7.69,4.59-13.7,13.96-13.7,2.13,0,4.33.39,5.95,1.1v8.47c-1.49-.9-3.43-1.36-5.11-1.36-3.49,0-5.62,1.75-5.62,5.36v1.81h10.21v7.76h-10.21v24.23h-9.18Z"/>
        <path class="cls-2" d="M233.59,125.58v-24.23h-5.69v-7.76h5.69v-1.68c0-7.69,4.59-13.7,13.96-13.7,2.13,0,4.33.39,5.95,1.1v8.47c-1.49-.9-3.42-1.36-5.1-1.36-3.49,0-5.62,1.75-5.62,5.36v1.81h10.21v7.76h-10.21v24.23h-9.18Z"/>
      </g>
    </g>
  </g>
</svg>