<?xml version="1.0" encoding="UTF-8"?>
<svg id="Layer_2" data-name="Layer 2" xmlns="http://www.w3.org/2000/svg" viewBox="0 0 75.68 75.68">
  <defs>
    <style>
      .cls-1 {
        fill: #000;
        stroke-width: 0px;
      }
    </style>
  </defs>
  <g id="_13_landing_4" data-name="13 landing 4">
    <g>
      <path class="cls-1" d="M74.51,38.22c-.23,20.62-16.85,36.39-36.58,36.27-20.85-.13-36.47-17.04-36.29-36.64C1.82,17.1,18.62,1.48,38.25,1.63c20.73.16,36.3,16.95,36.26,36.59ZM38,56.98c6.12,0,12.25,0,18.37,0,3.38,0,5.36-1.95,5.36-5.3,0-9.1,0-18.19,0-27.29,0-3.29-2-5.25-5.31-5.25-12.25,0-24.5,0-36.75,0-3.31,0-5.3,1.96-5.3,5.25,0,9.13-.01,18.26,0,27.4,0,3.22,2.01,5.19,5.25,5.2,6.12,0,12.25,0,18.37,0Z"/>
      <path class="cls-1" d="M52.22,31.47c-2.09,1.32-4.04,2.54-5.98,3.77-2.45,1.55-4.9,3.08-7.32,4.67-.64.42-1.1.39-1.73-.02-4.02-2.59-8.06-5.13-12.09-7.69-.33-.21-.67-.41-1.19-.72,0,.49,0,.86,0,1.24,0,6.16-.01,12.32.02,18.48,0,.78-.14,1.11-.99,1.03-.86-.08-1.74-.08-2.61,0-.93.09-1.21-.17-1.21-1.17.05-7.79.03-15.58.03-23.37,0-1.05,0-2.1,0-3.15,0-.27-.08-.66.37-.64,1.13.06,2.26-.22,3.36.47,4.77,3.01,9.6,5.94,14.38,8.94.62.39,1.04.36,1.64-.01,4.69-2.93,9.44-5.79,14.1-8.77,1.16-.74,2.33-.6,3.53-.63.32,0,.46.14.45.46,0,.22,0,.43,0,.65,0,8.7-.01,17.39.02,26.09,0,.89-.19,1.23-1.12,1.14-.9-.08-1.81-.07-2.71,0-.76.05-.97-.18-.97-.95.04-4.64.02-9.27.02-13.91,0-1.91,0-3.81,0-5.9Z"/>
    </g>
  </g>
</svg>