<?xml version="1.0" encoding="UTF-8"?>
<svg id="Layer_2" data-name="Layer 2" xmlns="http://www.w3.org/2000/svg" viewBox="0 0 82.66 82.66">
  <defs>
    <style>
      .cls-1 {
        fill: #000;
        stroke-width: 0px;
      }
    </style>
  </defs>
  <g id="_13_landing_4" data-name="13 landing 4">
    <g>
      <path class="cls-1" d="M5.25,41.4c0-19.99,16.27-36.29,36.43-36.16,19.87.13,36.04,16.34,35.91,36.43-.13,19.86-16.29,35.95-36.3,35.92-19.87-.04-36.04-16.26-36.03-36.19ZM65.54,40.69c0-2.08-.35-4.55-.92-6.47-3.52-11.75-15.3-18.61-27.27-15.87-9.69,2.22-17.03,10.82-17.65,20.72-.28,4.52.63,8.78,2.83,12.75.13.23.15.44.08.7-1.02,3.71-2.03,7.42-3.05,11.13-.08.29-.08.39.28.29,3.77-1,7.54-1.98,11.32-2.98.31-.08.56-.07.85.08,4.94,2.53,10.12,3.24,15.54,2.05,10.48-2.3,17.98-11.64,18-22.39Z"/>
      <path class="cls-1" d="M24.98,58.49c.42-1.53.83-3.06,1.25-4.59.18-.66.35-1.33.55-1.98.09-.28.04-.49-.12-.73-1.39-2.12-2.37-4.41-2.81-6.9-1.11-6.36.5-11.96,4.88-16.69,2.93-3.16,6.58-5.1,10.84-5.74,5.88-.88,11.14.62,15.63,4.56,3.54,3.11,5.62,7.05,6.26,11.71,1.33,9.75-5.07,18.97-14.66,21.13-4.93,1.11-9.59.36-13.95-2.19-.53-.31-.97-.35-1.54-.19-2,.55-4.01,1.06-6.01,1.59-.1.03-.2.09-.34.02ZM48.68,51.69c1.16.07,2.26-.33,3.33-.94,1.65-.94,2.23-2.41,2.22-4.21,0-.31-.13-.53-.4-.67-.29-.15-.59-.3-.88-.44-1.28-.63-2.55-1.29-3.87-1.83-.65-.26-.9-.17-1.3.39-.53.74-1.12,1.43-1.72,2.11-.36.41-.61.46-1.1.27-3.4-1.34-6.01-3.6-7.88-6.74-.35-.59-.31-.81.14-1.32.53-.59,1.09-1.17,1.42-1.91.15-.34.16-.65.01-.99-.35-.81-.68-1.62-1.03-2.43-.31-.73-.61-1.47-.93-2.2-.21-.47-.57-.72-1.11-.69-.36.02-.72,0-1.07,0-.57-.01-1.05.2-1.45.58-.43.41-.82.85-1.14,1.36-1.23,1.99-1.26,4.07-.48,6.22.68,1.85,1.84,3.4,3.05,4.93,2.76,3.48,6.05,6.26,10.34,7.7,1.23.41,2.43.89,3.84.82Z"/>
    </g>
  </g>
</svg>